User Type,Username,Date,Text
[V],oneanight,2010-03-18T20:02Z,"Thanks very much for this HMV :D 

And for those wanting a little bit more info..

and don't forget to say thank you to the poster who is dedicating his time and bandwidth..


General
Format                           : Matroska
File size                        : 5.48 GiB
Duration                         : 1h 38mn
Overall bit rate                 : 7948 Kbps

Video
ID                               : 1
Format                           : AVC
Format/Info                      : Advanced Video Codec
Format profile                   : High@L4.0
Format settings, CABAC           : Yes
Format settings, ReFrames        : 3 frames
Width                            : 1280 pixels
Height                           : 720 pixels
Display aspect ratio             : 16/9
Frame rate                       : 23.976 fps
Resolution                       : 24 bits
Colorimetry                      : 4:2:0
Scan type                        : Progressive
Bits/(Pixel*Frame)               : 0.324
Stream size                      : 4.93 GiB (90%)
Writing library                  : x264 core 89 r1471M 1144615


Audio
ID                               : 2
Format                           : AC-3
Format/Info                      : Audio Coding 3
Codec ID                         : A_AC3
Duration                         : 1h 38mn
Bit rate mode                    : Constant
Bit rate                         : 640 Kbps
Channel(s)                       : 6 channels
Channel positions                : Front: L C R, Surround: L R, LFE
Sampling rate                    : 48.0 KHz
Stream size                      : 452 MiB (8%)
Language                         : English"
[V],HMVinyl,2010-03-18T20:14Z,"thanks dude, feel free to post the info in the comments for the next few rips i do, i just dont want it filling up the description :)"
,warriorbest,2010-09-23T23:10Z,"Thanks!,

i'm that guy who ask you few days ago on facebook how to burn your vinyl torrents to a cd;)
i'll seed this torrent for 200 or 300%
"
,rippervanwinkle,2011-07-24T11:01Z,"The ripper hasn't yet discovered the crop filter :-(  Huge black bars left and right and a thin one top and bottom too.  The bluray disc contains DTS but all the rippers, including this one, have ignored this and offered only the AC3.  It's nice to have but with the picture uncropped and encoded at crf 22 and the same audio as the DVD there's no advantage over the DVD (A grainy film like this is where crf method falls down and you can get some major quality benefit by using 2 pass).  It could have been and should have been so much better.

Uncompressed png screenshot: 

http://img841.imageshack.us/img841/2916/shot0002rx.png

mediainfo:

General
Unique ID                        : 185125804068519283457361846019401038474 (0x8B45EED609419055A40CE98E8D2DBA8A)
Complete name                    : jimi.hendrix.live.at.woodstock.1969.720p.bluray.HMV.mkv
Format                           : Matroska
File size                        : 5.48 GiB
Duration                         : 1h 38mn
Overall bit rate                 : 7 948 Kbps
Movie name                       : 00003
Encoded date                     : UTC 2010-03-14 09:43:47
Writing application              : mkvmerge v3.2.0 ('Beginnings') built on Feb 12 2010 16:46:17
Writing library                  : libebml v0.7.9 + libmatroska v0.8.1

Video
ID                               : 1
Format                           : AVC
Format/Info                      : Advanced Video Codec
Format profile                   : High@L4.0
Format settings, CABAC           : Yes
Format settings, ReFrames        : 3 frames
Codec ID                         : V_MPEG4/ISO/AVC
Duration                         : 1h 38mn
Bit rate mode                    : Variable
Bit rate                         : 7 149 Kbps
Maximum bit rate                 : 25.0 Mbps
Width                            : 1 280 pixels
Height                           : 720 pixels
Display aspect ratio             : 16:9
Frame rate                       : 23.976 fps
Color space                      : YUV
Chroma subsampling               : 4:2:0
Bit depth                        : 8 bits
Scan type                        : Progressive
Bits/(Pixel*Frame)               : 0.324
Stream size                      : 4.93 GiB (90%)
Writing library                  : x264 core 89 r1471M 1144615
Encoding settings                : cabac=1 / ref=3 / deblock=1:0:0 / analyse=0x3:0x133 / me=umh / subme=7 / psy=1 / psy_rd=1.00:0.00 / mixed_ref=1 / me_range=16 / chroma_me=1 / trellis=1 / 8x8dct=1 / cqm=0 / deadzone=21,11 / fast_pskip=1 / chroma_qp_offset=-2 / threads=3 / sliced_threads=0 / nr=0 / decimate=1 / interlaced=0 / constrained_intra=0 / bframes=3 / b_pyramid=0 / b_adapt=1 / b_bias=0 / direct=1 / wpredb=1 / wpredp=2 / keyint=240 / keyint_min=24 / scenecut=40 / intra_refresh=0 / rc_lookahead=40 / rc=crf / mbtree=1 / crf=22.0 / qcomp=0.60 / qpmin=10 / qpmax=51 / qpstep=4 / vbv_maxrate=25000 / vbv_bufsize=25000 / ip_ratio=1.40 / aq=1:1.00 / pulldown=0 / nal_hrd=vbr

Audio
ID                               : 2
Format                           : AC-3
Format/Info                      : Audio Coding 3
Mode extension                   : CM (complete main)
Codec ID                         : A_AC3
Duration                         : 1h 38mn
Bit rate mode                    : Constant
Bit rate                         : 640 Kbps
Channel(s)                       : 6 channels
Channel positions                : Front: L C R, Side: L R, LFE
Sampling rate                    : 48.0 KHz
Bit depth                        : 16 bits
Compression mode                 : Lossy
Stream size                      : 452 MiB (8%)
Language                         : English

Menu
00:00:00.000                     : en:00:00:00.000
00:15:12.829                     : en:00:15:12.829
00:22:52.079                     : en:00:22:52.079
00:29:41.905                     : en:00:29:41.905
00:35:08.815                     : en:00:35:08.815
00:40:06.029                     : en:00:40:06.029
00:44:49.186                     : en:00:44:49.186
00:52:48.665                     : en:00:52:48.665
00:58:0"
